<svg width="99" height="148" viewBox="0 0 99 148" fill="none" xmlns="http://www.w3.org/2000/svg">
<rect y="12" width="5" height="50" rx="2.5" fill="#D0E8F2"/>
<rect x="12" y="39" width="5" height="45" rx="2.5" fill="#D0E8F2"/>
<rect x="94" y="66" width="5" height="45" rx="2.5" fill="#D0E8F2"/>
<rect x="24" y="24" width="5" height="35" rx="2.5" fill="#D0E8F2"/>
<rect x="36" y="39" width="5" height="50" rx="2.5" fill="#D0E8F2"/>
<rect x="82" y="84" width="5" height="50" rx="2.5" fill="#D0E8F2"/>
<rect x="48" y="17" width="5" height="40" rx="2.5" fill="#D0E8F2"/>
<rect y="108" width="5" height="40" rx="2.5" fill="#D0E8F2"/>
<rect x="59" y="39" width="5" height="55" rx="2.5" fill="#D0E8F2"/>
<rect x="24" y="134" width="5" height="14" rx="2.5" fill="#D0E8F2"/>
<rect x="70" y="17" width="5" height="50" rx="2.5" fill="#D0E8F2"/>
<rect x="48" y="67" width="5" height="50" rx="2.5" fill="#D0E8F2"/>
<rect y="71" width="5" height="30" rx="2.5" fill="#D0E8F2"/>
<rect x="12" y="92" width="5" height="45" rx="2.5" fill="#D0E8F2"/>
<rect x="59" y="101" width="5" height="45" rx="2.5" fill="#D0E8F2"/>
<rect x="82" y="44" width="5" height="30" rx="2.5" fill="#D0E8F2"/>
<rect x="36" y="100" width="5" height="30" rx="2.5" fill="#D0E8F2"/>
<rect x="94" y="124" width="5" height="24" rx="2.5" fill="#D0E8F2"/>
<rect x="70" y="76" width="5" height="35" rx="2.5" fill="#D0E8F2"/>
<rect x="82" width="5" height="35" rx="2.5" fill="#D0E8F2"/>
<rect x="94" width="5" height="55" rx="2.5" fill="#D0E8F2"/>
<rect x="24" y="71" width="5" height="55" rx="2.5" fill="#D0E8F2"/>
</svg>
